<?xml version="1.0" encoding="utf-8"?>
<!-- Generator: Adobe Illustrator 17.0.2, SVG Export Plug-In . SVG Version: 6.00 Build 0)  -->
<!DOCTYPE svg PUBLIC "-//W3C//DTD SVG 1.1//EN" "http://www.w3.org/Graphics/SVG/1.1/DTD/svg11.dtd">
<svg version="1.1" id="Layer_1" xmlns="http://www.w3.org/2000/svg" xmlns:xlink="http://www.w3.org/1999/xlink" x="0px" y="0px"
	 width="400px" height="100px" viewBox="0 0 400 100" enable-background="new 0 0 400 100" xml:space="preserve">
<g>
	<path fill="#231F20" d="M34.783,83.224c1.736,0,3.295-0.901,4.679-2.701c1.382-1.8,2.701-4.18,3.955-7.139
		c1.254-2.957,2.46-6.334,3.618-10.129c1.157-3.794,2.395-7.684,3.714-11.672c1.317-3.987,2.733-7.877,4.245-11.673
		c1.51-3.794,3.215-7.202,5.113-10.226c1.896-3.022,4.035-5.465,6.415-7.332c2.378-1.864,5.08-2.861,8.103-2.99
		c-1.736-1.93-4.003-3.521-6.801-4.775c-2.797-1.254-6.255-1.881-10.37-1.881c-5.532,0-10.226,1.222-14.084,3.666
		c-3.858,2.445-6.946,5.499-9.261,9.165c-2.315,3.666-3.924,7.638-4.823,11.914c-0.901,4.278-1.206,8.248-0.917,11.914
		c0.289,3.665,1.125,6.721,2.508,9.164c1.382,2.444,3.199,3.665,5.451,3.665c1.028,0,1.864-0.369,2.508-1.109
		c0.642-0.738,0.948-1.558,0.916-2.459c-0.033-0.9-0.482-1.72-1.35-2.46c-0.869-0.739-2.3-1.109-4.293-1.109
		c0-1.736,0.675-3.103,2.026-4.1c1.351-0.996,2.846-1.51,4.486-1.543c1.64-0.031,3.135,0.467,4.485,1.496
		c1.351,1.029,2.026,2.701,2.026,5.016c0,1.543-0.354,2.942-1.061,4.196c-0.708,1.254-1.64,2.331-2.797,3.231
		c-1.158,0.901-2.477,1.608-3.956,2.122c-1.48,0.516-2.99,0.771-4.534,0.771c-3.795,0-6.931-0.819-9.406-2.46
		c-2.477-1.64-4.309-3.811-5.499-6.511c-1.191-2.701-1.77-5.788-1.736-9.261c0.032-3.473,0.642-6.994,1.833-10.563
		c1.189-3.569,2.957-7.09,5.306-10.563c2.347-3.473,5.224-6.56,8.634-9.261c3.408-2.701,7.315-4.872,11.721-6.512
		c4.404-1.64,9.309-2.46,14.711-2.46c7.202,0,12.941,1.046,17.219,3.135c4.276,2.09,7.38,4.712,9.309,7.862
		c1.929,3.152,2.798,6.577,2.604,10.274c-0.193,3.699-1.174,7.124-2.942,10.274c-1.77,3.152-4.182,5.773-7.235,7.862
		c-3.055,2.091-6.48,3.135-10.273,3.135c-2.38,0-4.567-0.352-6.56-1.061c-1.48,4.438-3.055,8.859-4.727,13.264
		c-1.673,4.406-3.617,8.361-5.836,11.865c-2.219,3.507-4.775,6.351-7.669,8.538c-2.894,2.186-6.271,3.279-10.129,3.279
		c-1.673,0-3.28-0.226-4.823-0.675c-1.543-0.451-2.846-1.175-3.907-2.171c-1.061-0.998-1.785-2.283-2.17-3.858
		c-0.386-1.577-0.258-3.521,0.386-5.836c0.386-1.544,1.141-2.75,2.267-3.618c1.125-0.868,2.347-1.447,3.666-1.736
		c1.317-0.289,2.653-0.305,4.003-0.048c1.351,0.258,2.443,0.757,3.28,1.495c0.835,0.74,1.317,1.705,1.447,2.894
		c0.128,1.191-0.354,2.557-1.447,4.101c-0.837-0.707-1.625-1.062-2.364-1.062c-0.74,0-1.398,0.21-1.978,0.627
		c-0.579,0.419-1.013,0.965-1.302,1.64c-0.29,0.676-0.371,1.334-0.241,1.978c0.128,0.643,0.498,1.206,1.109,1.688
		C32.644,82.982,33.561,83.224,34.783,83.224z M75.975,21.099c-1.287,0.836-2.477,2.091-3.569,3.762
		c-1.094,1.673-2.122,3.618-3.087,5.836c-0.964,2.219-1.897,4.664-2.797,7.332c-0.901,2.669-1.833,5.45-2.798,8.344
		c1.093,0.516,2.089,0.885,2.991,1.109c0.9,0.226,1.768,0.338,2.604,0.338c2.186,0,4.083-0.9,5.692-2.701
		c1.606-1.8,2.781-4.052,3.521-6.753c0.738-2.701,0.931-5.61,0.579-8.73C78.756,26.518,77.711,23.672,75.975,21.099z"/>
	<path fill="#231F20" d="M98.934,42.033c2.443,0,4.341,0.467,5.691,1.398c1.351,0.933,2.282,2.219,2.798,3.859
		c0.514,1.64,0.642,3.569,0.386,5.788c-0.258,2.219-0.74,4.582-1.447,7.09c-0.771,2.508-1.833,4.871-3.183,7.09
		s-2.846,4.148-4.486,5.788c-1.64,1.641-3.361,2.928-5.161,3.859c-1.801,0.933-3.569,1.398-5.306,1.398
		c-2.445,0-4.341-0.466-5.691-1.398c-1.351-0.932-2.284-2.219-2.798-3.859c-0.515-1.64-0.642-3.569-0.386-5.788
		s0.739-4.582,1.447-7.09c0.707-2.508,1.72-4.871,3.039-7.09c1.317-2.219,2.797-4.148,4.438-5.788s3.376-2.926,5.209-3.859
		C95.316,42.5,97.132,42.033,98.934,42.033z M89.769,74.252c0.772,0,1.592-0.675,2.46-2.025s1.72-3.054,2.557-5.113
		c0.835-2.058,1.591-4.26,2.267-6.607c0.675-2.347,1.173-4.549,1.496-6.608c0.321-2.058,0.417-3.762,0.289-5.112
		c-0.129-1.351-0.612-2.026-1.447-2.026c-0.836,0-1.705,0.675-2.604,2.026c-0.901,1.351-1.753,3.055-2.557,5.112
		c-0.805,2.06-1.512,4.262-2.122,6.608c-0.612,2.348-1.062,4.55-1.351,6.607c-0.29,2.06-0.371,3.763-0.241,5.113
		C88.643,73.577,89.061,74.252,89.769,74.252z"/>
	<path fill="#231F20" d="M145.14,42.418c-0.386,2.315-0.402,4.116-0.048,5.402c0.353,1.287,0.932,2.187,1.737,2.701
		c0.803,0.516,1.72,0.724,2.749,0.627c1.028-0.097,2.026-0.369,2.991-0.82c-3.473,4.051-6.689,6.431-9.647,7.138
		c-0.708,2.508-1.625,5.001-2.749,7.477c-1.126,2.477-2.412,4.727-3.859,6.752c-1.447,2.026-3.072,3.666-4.872,4.92
		c-1.801,1.255-3.73,1.882-5.788,1.882c-2.638,0-4.438-0.531-5.402-1.592c-0.964-1.062-1.415-2.588-1.351-4.582
		c-1.094,2.059-2.219,3.602-3.376,4.63c-1.158,1.029-2.477,1.544-3.956,1.544c-0.836,0-1.656-0.177-2.459-0.531
		c-0.805-0.353-1.432-0.979-1.881-1.881c-0.449-0.899-0.675-2.171-0.675-3.811s0.386-3.745,1.158-6.318l7.428-23.923h8.682
		c-1.094,3.602-2.122,6.945-3.087,10.032c-0.836,2.701-1.656,5.371-2.46,8.007c-0.805,2.638-1.398,4.599-1.785,5.885
		c-0.771,2.444-1.078,4.036-0.917,4.775c0.16,0.739,0.466,1.109,0.917,1.109c0.321,0,0.835-0.531,1.543-1.592
		c0.707-1.062,1.351-2.234,1.93-3.521c0.128-0.707,0.304-1.414,0.53-2.122c0.225-0.707,0.466-1.447,0.724-2.219l5.981-20.354h8.972
		c-0.965,2.958-1.833,5.725-2.605,8.296c-0.708,2.251-1.398,4.519-2.074,6.801c-0.675,2.283-1.206,4.036-1.592,5.257
		c-0.516,1.543-0.981,2.99-1.399,4.341c-0.419,1.351-0.708,2.524-0.868,3.521c-0.161,0.998-0.129,1.801,0.097,2.411
		c0.225,0.612,0.723,0.917,1.495,0.917c0.965,0,1.961-0.466,2.99-1.399c1.028-0.931,2.009-2.137,2.942-3.617
		c0.932-1.479,1.8-3.184,2.604-5.112c0.804-1.93,1.462-3.891,1.978-5.885c-1.351-0.386-2.38-1.317-3.087-2.798
		c-0.708-1.479-0.998-3.473-0.868-5.98L145.14,42.418z"/>
	<path fill="#231F20" d="M167.809,65.956c-0.771,2.444-1.061,4.003-0.868,4.679c0.193,0.675,0.579,1.077,1.158,1.206
		c0.707,0.192,1.575-0.049,2.604-0.724c1.028-0.676,1.93-1.849,2.701-3.521h1.64c-0.772,1.994-1.688,3.683-2.75,5.064
		c-1.061,1.384-2.155,2.509-3.28,3.377c-1.126,0.868-2.219,1.495-3.28,1.881s-2.011,0.579-2.846,0.579
		c-1.288,0-2.445-0.354-3.473-1.062c-1.029-0.707-1.608-2.089-1.736-4.148c-1.287,1.48-2.831,2.718-4.63,3.715
		c-1.801,0.997-3.603,1.495-5.402,1.495c-1.287,0-2.332-0.401-3.135-1.206c-0.805-0.804-1.302-2.026-1.495-3.666
		s-0.015-3.714,0.531-6.222c0.545-2.509,1.559-5.435,3.039-8.778c1.028-2.379,2.267-4.534,3.714-6.464
		c1.447-1.929,3.039-3.601,4.775-5.016c1.736-1.414,3.536-2.54,5.402-3.376c1.864-0.835,3.729-1.414,5.595-1.736l6.656-22.188h8.779
		c-2.315,7.717-4.406,14.759-6.271,21.126c-0.772,2.701-1.56,5.419-2.363,8.152c-0.805,2.733-1.543,5.242-2.219,7.524
		c-0.675,2.283-1.271,4.244-1.785,5.884C168.355,64.171,168.002,65.313,167.809,65.956z M158.066,69.043
		c0.128-0.514,0.241-1.013,0.338-1.495c0.096-0.482,0.241-1.013,0.434-1.592l5.691-18.907c-0.386-0.193-0.836-0.29-1.351-0.29
		c-1.029,0-2.09,0.596-3.183,1.785c-1.094,1.191-2.123,2.701-3.087,4.534c-0.965,1.833-1.85,3.795-2.653,5.884
		c-0.805,2.091-1.384,4.052-1.737,5.885c-0.354,1.833-0.451,3.345-0.289,4.534c0.16,1.19,0.659,1.784,1.495,1.784
		c0.707,0,1.495-0.272,2.363-0.819C156.957,69.8,157.615,69.365,158.066,69.043z"/>
	<path fill="#231F20" d="M194.53,42.033c2.122,0,3.697,0.612,4.727,1.833c1.028,1.223,1.559,2.718,1.592,4.486
		c0.031,1.77-0.371,3.682-1.206,5.74c-0.836,2.059-2.042,3.924-3.617,5.595c-1.577,1.673-3.473,3.007-5.692,4.004
		c-2.218,0.997-4.678,1.335-7.379,1.013c-0.193,2.444,0,4.502,0.579,6.174c0.579,1.673,1.768,2.508,3.569,2.508
		c2.122,0,4.131-0.658,6.029-1.978c1.896-1.317,3.585-2.812,5.064-4.485c1.672-1.93,3.216-4.115,4.631-6.56h1.544
		c-1.544,3.409-3.377,6.399-5.5,8.971c-0.901,1.158-1.897,2.268-2.99,3.328c-1.095,1.062-2.284,2.011-3.569,2.846
		c-1.287,0.837-2.67,1.512-4.148,2.026c-1.48,0.516-3.023,0.771-4.63,0.771c-3.023,0-5.354-0.899-6.994-2.701
		c-1.64-1.8-2.638-4.035-2.991-6.704c-0.354-2.668-0.145-5.579,0.627-8.73c0.772-3.15,2.074-6.061,3.907-8.73
		c1.833-2.667,4.131-4.903,6.897-6.704C187.744,42.934,190.927,42.033,194.53,42.033z M192.503,44.733
		c-0.836,0-1.722,0.516-2.652,1.543c-0.933,1.03-1.818,2.349-2.653,3.956c-0.837,1.607-1.592,3.409-2.267,5.401
		c-0.675,1.994-1.206,3.955-1.592,5.885c1.093,0.386,2.17,0.241,3.231-0.435c1.062-0.675,2.041-1.64,2.942-2.894
		c0.899-1.254,1.688-2.652,2.363-4.196c0.676-1.543,1.158-3.005,1.447-4.389c0.289-1.382,0.386-2.54,0.289-3.473
		C193.517,45.201,193.146,44.733,192.503,44.733z"/>
	<path fill="#231F20" d="M216.331,42.033l-1.351,4.341l8.296-5.499c-0.386,2.315-0.402,4.1-0.048,5.354
		c0.353,1.254,0.916,2.155,1.688,2.701c0.772,0.547,1.672,0.771,2.701,0.675c1.028-0.096,2.026-0.369,2.991-0.82
		c-2.06,2.444-4.052,4.261-5.981,5.45c-1.93,1.19-3.65,1.833-5.161,1.93c-1.512,0.096-2.766-0.353-3.762-1.351
		c-0.998-0.996-1.625-2.523-1.882-4.582l-8.488,28.554h-8.78l10.999-36.753H216.331z"/>
	<path fill="#231F20" d="M254.145,83.224c1.736,0,3.295-0.901,4.679-2.701c1.383-1.8,2.701-4.18,3.955-7.139
		c1.255-2.957,2.46-6.334,3.618-10.129c1.157-3.794,2.395-7.684,3.714-11.672c1.317-3.987,2.732-7.877,4.244-11.673
		c1.511-3.794,3.216-7.202,5.113-10.226c1.896-3.022,4.035-5.465,6.415-7.332c2.379-1.864,5.079-2.861,8.104-2.99
		c-1.736-1.93-4.004-3.521-6.802-4.775c-2.797-1.254-6.255-1.881-10.37-1.881c-5.531,0-10.226,1.222-14.084,3.666
		c-3.858,2.445-6.945,5.499-9.261,9.165c-2.315,3.666-3.924,7.638-4.823,11.914c-0.901,4.278-1.206,8.248-0.917,11.914
		c0.29,3.665,1.125,6.721,2.509,9.164c1.382,2.444,3.198,3.665,5.45,3.665c1.028,0,1.864-0.369,2.508-1.109
		c0.643-0.738,0.948-1.558,0.917-2.459c-0.033-0.9-0.482-1.72-1.351-2.46c-0.868-0.739-2.301-1.109-4.293-1.109
		c0-1.736,0.675-3.103,2.025-4.1c1.351-0.996,2.846-1.51,4.486-1.543c1.64-0.031,3.135,0.467,4.485,1.496
		c1.351,1.029,2.026,2.701,2.026,5.016c0,1.543-0.354,2.942-1.062,4.196c-0.708,1.254-1.64,2.331-2.798,3.231
		c-1.157,0.901-2.477,1.608-3.955,2.122c-1.48,0.516-2.99,0.771-4.534,0.771c-3.795,0-6.931-0.819-9.405-2.46
		c-2.477-1.64-4.31-3.811-5.499-6.511c-1.19-2.701-1.77-5.788-1.736-9.261c0.032-3.473,0.643-6.994,1.833-10.563
		c1.189-3.569,2.958-7.09,5.306-10.563c2.348-3.473,5.225-6.56,8.634-9.261c3.408-2.701,7.315-4.872,11.721-6.512
		c4.404-1.64,9.31-2.46,14.712-2.46c7.202,0,12.941,1.046,17.22,3.135c4.275,2.09,7.379,4.712,9.309,7.862
		c1.93,3.152,2.798,6.577,2.604,10.274c-0.192,3.699-1.174,7.124-2.942,10.274c-1.77,3.152-4.181,5.773-7.234,7.862
		c-3.056,2.091-6.48,3.135-10.274,3.135c-2.38,0-4.566-0.352-6.56-1.061c-1.48,4.438-3.056,8.859-4.727,13.264
		c-1.674,4.406-3.618,8.361-5.837,11.865c-2.219,3.507-4.774,6.351-7.669,8.538c-2.894,2.186-6.271,3.279-10.129,3.279
		c-1.673,0-3.28-0.226-4.823-0.675c-1.544-0.451-2.846-1.175-3.907-2.171c-1.062-0.998-1.784-2.283-2.171-3.858
		c-0.386-1.577-0.257-3.521,0.387-5.836c0.386-1.544,1.141-2.75,2.267-3.618c1.124-0.868,2.347-1.447,3.666-1.736
		c1.317-0.289,2.652-0.305,4.003-0.048c1.351,0.258,2.443,0.757,3.28,1.495c0.835,0.74,1.317,1.705,1.447,2.894
		c0.128,1.191-0.354,2.557-1.447,4.101c-0.837-0.707-1.625-1.062-2.363-1.062c-0.74,0-1.399,0.21-1.978,0.627
		c-0.579,0.419-1.014,0.965-1.303,1.64c-0.289,0.676-0.371,1.334-0.241,1.978c0.128,0.643,0.497,1.206,1.109,1.688
		C252.006,82.982,252.923,83.224,254.145,83.224z M295.337,21.099c-1.288,0.836-2.477,2.091-3.569,3.762
		c-1.095,1.673-2.123,3.618-3.087,5.836c-0.965,2.219-1.898,4.664-2.798,7.332c-0.901,2.669-1.833,5.45-2.798,8.344
		c1.093,0.516,2.089,0.885,2.99,1.109c0.9,0.226,1.769,0.338,2.605,0.338c2.186,0,4.083-0.9,5.691-2.701
		c1.606-1.8,2.781-4.052,3.521-6.753s0.932-5.61,0.579-8.73C298.117,26.518,297.073,23.672,295.337,21.099z"/>
	<path fill="#231F20" d="M320.128,65.956c-0.386,1.223-0.644,2.203-0.771,2.942c-0.13,0.74-0.145,1.318-0.048,1.736
		c0.096,0.419,0.256,0.708,0.482,0.868c0.225,0.161,0.466,0.274,0.723,0.338c0.579,0.192,1.431-0.049,2.557-0.724
		c1.125-0.676,2.074-1.849,2.846-3.521h1.544c-0.837,1.994-1.785,3.683-2.846,5.064c-1.062,1.384-2.139,2.509-3.232,3.377
		s-2.17,1.495-3.231,1.881c-1.061,0.386-2.042,0.579-2.942,0.579c-0.644,0-1.271-0.097-1.881-0.29
		c-0.612-0.192-1.157-0.514-1.64-0.965c-0.482-0.448-0.854-1.061-1.109-1.832c-0.258-0.772-0.386-1.769-0.386-2.991
		c-1.095,1.994-2.219,3.506-3.377,4.534c-1.157,1.029-2.477,1.544-3.955,1.544c-0.836,0-1.656-0.177-2.46-0.531
		c-0.805-0.353-1.432-0.979-1.881-1.881c-0.449-0.899-0.675-2.171-0.675-3.811s0.386-3.745,1.157-6.318l7.235-23.923h8.682
		c-1.095,3.602-2.091,6.945-2.99,10.032c-0.837,2.701-1.641,5.371-2.412,8.007c-0.771,2.638-1.351,4.599-1.736,5.885
		c-0.771,2.444-1.077,4.036-0.916,4.775c0.159,0.739,0.4,1.109,0.724,1.109c0.386,0,0.947-0.546,1.688-1.641
		c0.739-1.093,1.366-2.281,1.882-3.569l0.192-0.675l7.428-23.923h8.683c-1.095,3.602-2.122,6.945-3.087,10.032
		c-0.837,2.701-1.657,5.371-2.46,8.007C321.108,62.709,320.514,64.67,320.128,65.956z"/>
	<path fill="#231F20" d="M377.333,17.626c1.929,0,3.473,0.402,4.63,1.206c1.157,0.805,1.978,1.801,2.46,2.991
		c0.482,1.19,0.61,2.477,0.386,3.858c-0.226,1.384-0.708,2.669-1.447,3.859c-0.739,1.191-1.753,2.187-3.038,2.99
		c-1.287,0.805-2.798,1.206-4.534,1.206c-1.93,0-3.248-0.594-3.955-1.785c-0.709-1.189-0.934-2.443-0.676-3.762
		c0.257-1.317,0.932-2.46,2.026-3.425c1.093-0.964,2.475-1.254,4.148-0.868c-0.387,0.323-0.628,0.724-0.724,1.206
		c-0.097,0.482-0.097,0.933,0,1.351c0.096,0.419,0.304,0.771,0.627,1.061c0.32,0.29,0.675,0.434,1.061,0.434
		c0.515,0,0.884-0.386,1.109-1.158c0.225-0.771,0.273-1.623,0.146-2.556c-0.13-0.932-0.516-1.785-1.158-2.557
		c-0.644-0.771-1.576-1.157-2.798-1.157c-1.673,0-3.216,0.916-4.63,2.749c-1.415,1.833-2.573,4.196-3.473,7.09
		c-0.193,0.516-0.468,1.384-0.82,2.604c-0.354,1.223-0.771,2.701-1.254,4.438c-0.482,1.737-1.046,3.683-1.688,5.836
		c-0.644,2.156-1.287,4.389-1.929,6.705l7.91-5.499c-0.323,2.315-0.274,4.116,0.145,5.402c0.417,1.288,1.013,2.187,1.784,2.701
		c0.772,0.516,1.672,0.724,2.701,0.627c1.028-0.096,2.026-0.369,2.991-0.819c-2.06,2.38-4.037,4.181-5.934,5.402
		c-1.897,1.222-3.617,1.881-5.16,1.977c-1.544,0.097-2.814-0.338-3.811-1.302c-0.998-0.965-1.625-2.443-1.882-4.438
		c-1.094,3.858-2.203,7.717-3.328,11.576c-1.126,3.858-2.139,7.331-3.038,10.418c-1.095,3.602-2.091,7.074-2.991,10.419h-8.971
		c0.899-3.023,1.832-6.174,2.797-9.454c0.835-2.829,1.769-6.013,2.798-9.55c1.028-3.536,2.089-7.171,3.184-10.901
		c-3.28,2.639-6.094,3.699-8.441,3.184c-2.348-0.514-3.714-2.411-4.1-5.691c-1.094,3.858-2.203,7.717-3.328,11.576
		c-1.126,3.858-2.139,7.331-3.039,10.418c-1.094,3.602-2.09,7.074-2.99,10.419h-8.972c2.06-7.203,4.085-14.116,6.078-20.74
		c0.835-2.83,1.688-5.724,2.556-8.683c0.868-2.957,1.721-5.819,2.557-8.585c0.835-2.765,1.624-5.354,2.363-7.766
		s1.366-4.486,1.882-6.222c1.027-3.536,2.281-6.398,3.762-8.585c1.479-2.186,3.07-3.891,4.775-5.113
		c1.703-1.221,3.504-2.041,5.402-2.46c1.896-0.417,3.811-0.627,5.739-0.627c1.414,0,2.765,0.274,4.052,0.82
		c1.286,0.547,2.186,1.463,2.701,2.749l-3.762,4.245c-0.13-1.543-0.645-2.749-1.544-3.617c-0.901-0.868-1.963-1.302-3.184-1.302
		c-1.673,0-3.217,0.916-4.63,2.749c-1.416,1.833-2.573,4.196-3.474,7.09c-0.192,0.516-0.467,1.384-0.819,2.604
		c-0.354,1.223-0.771,2.701-1.254,4.438c-0.482,1.737-1.047,3.683-1.688,5.836c-0.644,2.156-1.287,4.389-1.93,6.705l7.91-5.499
		c-0.257,1.673-0.306,3.072-0.145,4.196c0.16,1.126,0.466,2.026,0.917,2.701c0.449,0.675,0.979,1.157,1.592,1.446
		c0.61,0.29,1.269,0.435,1.978,0.435l5.691-18.811c1.027-3.536,2.282-6.398,3.762-8.585c1.479-2.186,3.07-3.891,4.775-5.113
		c1.703-1.221,3.505-2.041,5.402-2.46C373.489,17.836,375.403,17.626,377.333,17.626z"/>
</g>
<g>
</g>
<g>
</g>
<g>
</g>
<g>
</g>
<g>
</g>
<g>
</g>
</svg>
