<svg xmlns="http://www.w3.org/2000/svg" width="400" height="100" viewBox="0 0 400 100"><g fill="#231F20"><path d="M34.783 83.224c1.736 0 3.295-.901 4.679-2.701 1.382-1.8 2.701-4.18 3.955-7.139 1.254-2.957 2.46-6.334 3.618-10.129 1.157-3.794 2.395-7.684 3.714-11.672 1.317-3.987 2.733-7.877 4.245-11.673 1.51-3.794 3.215-7.202 5.113-10.226 1.896-3.022 4.035-5.465 6.415-7.332 2.378-1.864 5.08-2.861 8.103-2.99-1.736-1.93-4.003-3.521-6.801-4.775-2.797-1.254-6.255-1.881-10.37-1.881-5.532 0-10.226 1.222-14.084 3.666-3.858 2.445-6.946 5.499-9.261 9.165-2.315 3.666-3.924 7.638-4.823 11.914-.901 4.278-1.206 8.248-.917 11.914.289 3.665 1.125 6.721 2.508 9.164 1.382 2.444 3.199 3.665 5.451 3.665 1.028 0 1.864-.369 2.508-1.109.642-.738.948-1.558.916-2.459-.033-.9-.482-1.72-1.35-2.46-.869-.739-2.3-1.109-4.293-1.109 0-1.736.675-3.103 2.026-4.1 1.351-.996 2.846-1.51 4.486-1.543 1.64-.031 3.135.467 4.485 1.496 1.351 1.029 2.026 2.701 2.026 5.016 0 1.543-.354 2.942-1.061 4.196-.708 1.254-1.64 2.331-2.797 3.231-1.158.901-2.477 1.608-3.956 2.122-1.48.516-2.99.771-4.534.771-3.795 0-6.931-.819-9.406-2.46-2.477-1.64-4.309-3.811-5.499-6.511-1.191-2.701-1.77-5.788-1.736-9.261.032-3.473.642-6.994 1.833-10.563 1.189-3.569 2.957-7.09 5.306-10.563 2.347-3.473 5.224-6.56 8.634-9.261 3.408-2.701 7.315-4.872 11.721-6.512 4.404-1.64 9.309-2.46 14.711-2.46 7.202 0 12.941 1.046 17.219 3.135 4.276 2.09 7.38 4.712 9.309 7.862 1.929 3.152 2.798 6.577 2.604 10.274-.193 3.699-1.174 7.124-2.942 10.274-1.77 3.152-4.182 5.773-7.235 7.862-3.055 2.091-6.48 3.135-10.273 3.135-2.38 0-4.567-.352-6.56-1.061-1.48 4.438-3.055 8.859-4.727 13.264-1.673 4.406-3.617 8.361-5.836 11.865-2.219 3.507-4.775 6.351-7.669 8.538-2.894 2.186-6.271 3.279-10.129 3.279-1.673 0-3.28-.226-4.823-.675-1.543-.451-2.846-1.175-3.907-2.171-1.061-.998-1.785-2.283-2.17-3.858-.386-1.577-.258-3.521.386-5.836.386-1.544 1.141-2.75 2.267-3.618 1.125-.868 2.347-1.447 3.666-1.736 1.317-.289 2.653-.305 4.003-.048 1.351.258 2.443.757 3.28 1.495.835.74 1.317 1.705 1.447 2.894.128 1.191-.354 2.557-1.447 4.101-.837-.707-1.625-1.062-2.364-1.062-.74 0-1.398.21-1.978.627-.579.419-1.013.965-1.302 1.64-.29.676-.371 1.334-.241 1.978.128.643.498 1.206 1.109 1.688.609.481 1.526.723 2.748.723zm41.192-62.125c-1.287.836-2.477 2.091-3.569 3.762-1.094 1.673-2.122 3.618-3.087 5.836-.964 2.219-1.897 4.664-2.797 7.332-.901 2.669-1.833 5.45-2.798 8.344 1.093.516 2.089.885 2.991 1.109.9.226 1.768.338 2.604.338 2.186 0 4.083-.9 5.692-2.701 1.606-1.8 2.781-4.052 3.521-6.753.738-2.701.931-5.61.579-8.73-.355-3.118-1.4-5.964-3.136-8.537zM98.934 42.033c2.443 0 4.341.467 5.691 1.398 1.351.933 2.282 2.219 2.798 3.859.514 1.64.642 3.569.386 5.788-.258 2.219-.74 4.582-1.447 7.09-.771 2.508-1.833 4.871-3.183 7.09s-2.846 4.148-4.486 5.788c-1.64 1.641-3.361 2.928-5.161 3.859-1.801.933-3.569 1.398-5.306 1.398-2.445 0-4.341-.466-5.691-1.398-1.351-.932-2.284-2.219-2.798-3.859-.515-1.64-.642-3.569-.386-5.788s.739-4.582 1.447-7.09c.707-2.508 1.72-4.871 3.039-7.09 1.317-2.219 2.797-4.148 4.438-5.788s3.376-2.926 5.209-3.859c1.832-.931 3.648-1.398 5.45-1.398zm-9.165 32.219c.772 0 1.592-.675 2.46-2.025s1.72-3.054 2.557-5.113c.835-2.058 1.591-4.26 2.267-6.607.675-2.347 1.173-4.549 1.496-6.608.321-2.058.417-3.762.289-5.112-.129-1.351-.612-2.026-1.447-2.026-.836 0-1.705.675-2.604 2.026-.901 1.351-1.753 3.055-2.557 5.112-.805 2.06-1.512 4.262-2.122 6.608-.612 2.348-1.062 4.55-1.351 6.607-.29 2.06-.371 3.763-.241 5.113.127 1.35.545 2.025 1.253 2.025zM145.14 42.418c-.386 2.315-.402 4.116-.048 5.402.353 1.287.932 2.187 1.737 2.701.803.516 1.72.724 2.749.627 1.028-.097 2.026-.369 2.991-.82-3.473 4.051-6.689 6.431-9.647 7.138-.708 2.508-1.625 5.001-2.749 7.477-1.126 2.477-2.412 4.727-3.859 6.752-1.447 2.026-3.072 3.666-4.872 4.92-1.801 1.255-3.73 1.882-5.788 1.882-2.638 0-4.438-.531-5.402-1.592-.964-1.062-1.415-2.588-1.351-4.582-1.094 2.059-2.219 3.602-3.376 4.63-1.158 1.029-2.477 1.544-3.956 1.544-.836 0-1.656-.177-2.459-.531-.805-.353-1.432-.979-1.881-1.881-.449-.899-.675-2.171-.675-3.811s.386-3.745 1.158-6.318l7.428-23.923h8.682c-1.094 3.602-2.122 6.945-3.087 10.032-.836 2.701-1.656 5.371-2.46 8.007-.805 2.638-1.398 4.599-1.785 5.885-.771 2.444-1.078 4.036-.917 4.775.16.739.466 1.109.917 1.109.321 0 .835-.531 1.543-1.592.707-1.062 1.351-2.234 1.93-3.521.128-.707.304-1.414.53-2.122.225-.707.466-1.447.724-2.219l5.981-20.354h8.972c-.965 2.958-1.833 5.725-2.605 8.296-.708 2.251-1.398 4.519-2.074 6.801-.675 2.283-1.206 4.036-1.592 5.257-.516 1.543-.981 2.99-1.399 4.341-.419 1.351-.708 2.524-.868 3.521-.161.998-.129 1.801.097 2.411.225.612.723.917 1.495.917.965 0 1.961-.466 2.99-1.399 1.028-.931 2.009-2.137 2.942-3.617.932-1.479 1.8-3.184 2.604-5.112.804-1.93 1.462-3.891 1.978-5.885-1.351-.386-2.38-1.317-3.087-2.798-.708-1.479-.998-3.473-.868-5.98l9.357-6.368zM167.809 65.956c-.771 2.444-1.061 4.003-.868 4.679.193.675.579 1.077 1.158 1.206.707.192 1.575-.049 2.604-.724 1.028-.676 1.93-1.849 2.701-3.521h1.64c-.772 1.994-1.688 3.683-2.75 5.064-1.061 1.384-2.155 2.509-3.28 3.377-1.126.868-2.219 1.495-3.28 1.881s-2.011.579-2.846.579c-1.288 0-2.445-.354-3.473-1.062-1.029-.707-1.608-2.089-1.736-4.148-1.287 1.48-2.831 2.718-4.63 3.715-1.801.997-3.603 1.495-5.402 1.495-1.287 0-2.332-.401-3.135-1.206-.805-.804-1.302-2.026-1.495-3.666s-.015-3.714.531-6.222c.545-2.509 1.559-5.435 3.039-8.778 1.028-2.379 2.267-4.534 3.714-6.464 1.447-1.929 3.039-3.601 4.775-5.016 1.736-1.414 3.536-2.54 5.402-3.376 1.864-.835 3.729-1.414 5.595-1.736l6.656-22.188h8.779c-2.315 7.717-4.406 14.759-6.271 21.126-.772 2.701-1.56 5.419-2.363 8.152-.805 2.733-1.543 5.242-2.219 7.524-.675 2.283-1.271 4.244-1.785 5.884-.515 1.64-.868 2.782-1.061 3.425zm-9.743 3.087c.128-.514.241-1.013.338-1.495.096-.482.241-1.013.434-1.592l5.691-18.907c-.386-.193-.836-.29-1.351-.29-1.029 0-2.09.596-3.183 1.785-1.094 1.191-2.123 2.701-3.087 4.534-.965 1.833-1.85 3.795-2.653 5.884-.805 2.091-1.384 4.052-1.737 5.885-.354 1.833-.451 3.345-.289 4.534.16 1.19.659 1.784 1.495 1.784.707 0 1.495-.272 2.363-.819.87-.546 1.528-.981 1.979-1.303zM194.53 42.033c2.122 0 3.697.612 4.727 1.833 1.028 1.223 1.559 2.718 1.592 4.486.031 1.77-.371 3.682-1.206 5.74-.836 2.059-2.042 3.924-3.617 5.595-1.577 1.673-3.473 3.007-5.692 4.004-2.218.997-4.678 1.335-7.379 1.013-.193 2.444 0 4.502.579 6.174.579 1.673 1.768 2.508 3.569 2.508 2.122 0 4.131-.658 6.029-1.978 1.896-1.317 3.585-2.812 5.064-4.485 1.672-1.93 3.216-4.115 4.631-6.56h1.544c-1.544 3.409-3.377 6.399-5.5 8.971-.901 1.158-1.897 2.268-2.99 3.328-1.095 1.062-2.284 2.011-3.569 2.846-1.287.837-2.67 1.512-4.148 2.026-1.48.516-3.023.771-4.63.771-3.023 0-5.354-.899-6.994-2.701-1.64-1.8-2.638-4.035-2.991-6.704-.354-2.668-.145-5.579.627-8.73.772-3.15 2.074-6.061 3.907-8.73 1.833-2.667 4.131-4.903 6.897-6.704 2.764-1.802 5.947-2.703 9.55-2.703zm-2.027 2.7c-.836 0-1.722.516-2.652 1.543-.933 1.03-1.818 2.349-2.653 3.956-.837 1.607-1.592 3.409-2.267 5.401-.675 1.994-1.206 3.955-1.592 5.885 1.093.386 2.17.241 3.231-.435 1.062-.675 2.041-1.64 2.942-2.894.899-1.254 1.688-2.652 2.363-4.196.676-1.543 1.158-3.005 1.447-4.389.289-1.382.386-2.54.289-3.473-.094-.93-.465-1.398-1.108-1.398zM216.331 42.033l-1.351 4.341 8.296-5.499c-.386 2.315-.402 4.1-.048 5.354.353 1.254.916 2.155 1.688 2.701.772.547 1.672.771 2.701.675 1.028-.096 2.026-.369 2.991-.82-2.06 2.444-4.052 4.261-5.981 5.45-1.93 1.19-3.65 1.833-5.161 1.93-1.512.096-2.766-.353-3.762-1.351-.998-.996-1.625-2.523-1.882-4.582l-8.488 28.554h-8.78l10.999-36.753h8.778zM254.145 83.224c1.736 0 3.295-.901 4.679-2.701 1.383-1.8 2.701-4.18 3.955-7.139 1.255-2.957 2.46-6.334 3.618-10.129 1.157-3.794 2.395-7.684 3.714-11.672 1.317-3.987 2.732-7.877 4.244-11.673 1.511-3.794 3.216-7.202 5.113-10.226 1.896-3.022 4.035-5.465 6.415-7.332 2.379-1.864 5.079-2.861 8.104-2.99-1.736-1.93-4.004-3.521-6.802-4.775-2.797-1.254-6.255-1.881-10.37-1.881-5.531 0-10.226 1.222-14.084 3.666-3.858 2.445-6.945 5.499-9.261 9.165-2.315 3.666-3.924 7.638-4.823 11.914-.901 4.278-1.206 8.248-.917 11.914.29 3.665 1.125 6.721 2.509 9.164 1.382 2.444 3.198 3.665 5.45 3.665 1.028 0 1.864-.369 2.508-1.109.643-.738.948-1.558.917-2.459-.033-.9-.482-1.72-1.351-2.46-.868-.739-2.301-1.109-4.293-1.109 0-1.736.675-3.103 2.025-4.1 1.351-.996 2.846-1.51 4.486-1.543 1.64-.031 3.135.467 4.485 1.496 1.351 1.029 2.026 2.701 2.026 5.016 0 1.543-.354 2.942-1.062 4.196-.708 1.254-1.64 2.331-2.798 3.231-1.157.901-2.477 1.608-3.955 2.122-1.48.516-2.99.771-4.534.771-3.795 0-6.931-.819-9.405-2.46-2.477-1.64-4.31-3.811-5.499-6.511-1.19-2.701-1.77-5.788-1.736-9.261.032-3.473.643-6.994 1.833-10.563 1.189-3.569 2.958-7.09 5.306-10.563 2.348-3.473 5.225-6.56 8.634-9.261 3.408-2.701 7.315-4.872 11.721-6.512 4.404-1.64 9.31-2.46 14.712-2.46 7.202 0 12.941 1.046 17.22 3.135 4.275 2.09 7.379 4.712 9.309 7.862 1.93 3.152 2.798 6.577 2.604 10.274-.192 3.699-1.174 7.124-2.942 10.274-1.77 3.152-4.181 5.773-7.234 7.862-3.056 2.091-6.48 3.135-10.274 3.135-2.38 0-4.566-.352-6.56-1.061-1.48 4.438-3.056 8.859-4.727 13.264-1.674 4.406-3.618 8.361-5.837 11.865-2.219 3.507-4.774 6.351-7.669 8.538-2.894 2.186-6.271 3.279-10.129 3.279-1.673 0-3.28-.226-4.823-.675-1.544-.451-2.846-1.175-3.907-2.171-1.062-.998-1.784-2.283-2.171-3.858-.386-1.577-.257-3.521.387-5.836.386-1.544 1.141-2.75 2.267-3.618 1.124-.868 2.347-1.447 3.666-1.736 1.317-.289 2.652-.305 4.003-.048 1.351.258 2.443.757 3.28 1.495.835.74 1.317 1.705 1.447 2.894.128 1.191-.354 2.557-1.447 4.101-.837-.707-1.625-1.062-2.363-1.062-.74 0-1.399.21-1.978.627-.579.419-1.014.965-1.303 1.64-.289.676-.371 1.334-.241 1.978.128.643.497 1.206 1.109 1.688.61.481 1.527.723 2.749.723zm41.192-62.125c-1.288.836-2.477 2.091-3.569 3.762-1.095 1.673-2.123 3.618-3.087 5.836-.965 2.219-1.898 4.664-2.798 7.332-.901 2.669-1.833 5.45-2.798 8.344 1.093.516 2.089.885 2.99 1.109.9.226 1.769.338 2.605.338 2.186 0 4.083-.9 5.691-2.701 1.606-1.8 2.781-4.052 3.521-6.753s.932-5.61.579-8.73c-.354-3.118-1.398-5.964-3.134-8.537zM320.128 65.956c-.386 1.223-.644 2.203-.771 2.942-.13.74-.145 1.318-.048 1.736.096.419.256.708.482.868.225.161.466.274.723.338.579.192 1.431-.049 2.557-.724 1.125-.676 2.074-1.849 2.846-3.521h1.544c-.837 1.994-1.785 3.683-2.846 5.064-1.062 1.384-2.139 2.509-3.232 3.377s-2.17 1.495-3.231 1.881c-1.061.386-2.042.579-2.942.579-.644 0-1.271-.097-1.881-.29-.612-.192-1.157-.514-1.64-.965-.482-.448-.854-1.061-1.109-1.832-.258-.772-.386-1.769-.386-2.991-1.095 1.994-2.219 3.506-3.377 4.534-1.157 1.029-2.477 1.544-3.955 1.544-.836 0-1.656-.177-2.46-.531-.805-.353-1.432-.979-1.881-1.881-.449-.899-.675-2.171-.675-3.811s.386-3.745 1.157-6.318l7.235-23.923h8.682c-1.095 3.602-2.091 6.945-2.99 10.032-.837 2.701-1.641 5.371-2.412 8.007-.771 2.638-1.351 4.599-1.736 5.885-.771 2.444-1.077 4.036-.916 4.775.159.739.4 1.109.724 1.109.386 0 .947-.546 1.688-1.641.739-1.093 1.366-2.281 1.882-3.569l.192-.675 7.428-23.923h8.683c-1.095 3.602-2.122 6.945-3.087 10.032-.837 2.701-1.657 5.371-2.46 8.007-.808 2.638-1.402 4.599-1.788 5.885zM377.333 17.626c1.929 0 3.473.402 4.63 1.206 1.157.805 1.978 1.801 2.46 2.991.482 1.19.61 2.477.386 3.858-.226 1.384-.708 2.669-1.447 3.859-.739 1.191-1.753 2.187-3.038 2.99-1.287.805-2.798 1.206-4.534 1.206-1.93 0-3.248-.594-3.955-1.785-.709-1.189-.934-2.443-.676-3.762.257-1.317.932-2.46 2.026-3.425 1.093-.964 2.475-1.254 4.148-.868-.387.323-.628.724-.724 1.206-.097.482-.097.933 0 1.351.096.419.304.771.627 1.061.32.29.675.434 1.061.434.515 0 .884-.386 1.109-1.158.225-.771.273-1.623.146-2.556-.13-.932-.516-1.785-1.158-2.557-.644-.771-1.576-1.157-2.798-1.157-1.673 0-3.216.916-4.63 2.749-1.415 1.833-2.573 4.196-3.473 7.09-.193.516-.468 1.384-.82 2.604-.354 1.223-.771 2.701-1.254 4.438-.482 1.737-1.046 3.683-1.688 5.836-.644 2.156-1.287 4.389-1.929 6.705l7.91-5.499c-.323 2.315-.274 4.116.145 5.402.417 1.288 1.013 2.187 1.784 2.701.772.516 1.672.724 2.701.627 1.028-.096 2.026-.369 2.991-.819-2.06 2.38-4.037 4.181-5.934 5.402-1.897 1.222-3.617 1.881-5.16 1.977-1.544.097-2.814-.338-3.811-1.302-.998-.965-1.625-2.443-1.882-4.438-1.094 3.858-2.203 7.717-3.328 11.576-1.126 3.858-2.139 7.331-3.038 10.418-1.095 3.602-2.091 7.074-2.991 10.419h-8.971c.899-3.023 1.832-6.174 2.797-9.454.835-2.829 1.769-6.013 2.798-9.55 1.028-3.536 2.089-7.171 3.184-10.901-3.28 2.639-6.094 3.699-8.441 3.184-2.348-.514-3.714-2.411-4.1-5.691-1.094 3.858-2.203 7.717-3.328 11.576-1.126 3.858-2.139 7.331-3.039 10.418-1.094 3.602-2.09 7.074-2.99 10.419h-8.972c2.06-7.203 4.085-14.116 6.078-20.74.835-2.83 1.688-5.724 2.556-8.683.868-2.957 1.721-5.819 2.557-8.585.835-2.765 1.624-5.354 2.363-7.766s1.366-4.486 1.882-6.222c1.027-3.536 2.281-6.398 3.762-8.585 1.479-2.186 3.07-3.891 4.775-5.113 1.703-1.221 3.504-2.041 5.402-2.46 1.896-.417 3.811-.627 5.739-.627 1.414 0 2.765.274 4.052.82 1.286.547 2.186 1.463 2.701 2.749l-3.762 4.245c-.13-1.543-.645-2.749-1.544-3.617-.901-.868-1.963-1.302-3.184-1.302-1.673 0-3.217.916-4.63 2.749-1.416 1.833-2.573 4.196-3.474 7.09-.192.516-.467 1.384-.819 2.604-.354 1.223-.771 2.701-1.254 4.438-.482 1.737-1.047 3.683-1.688 5.836-.644 2.156-1.287 4.389-1.93 6.705l7.91-5.499c-.257 1.673-.306 3.072-.145 4.196.16 1.126.466 2.026.917 2.701.449.675.979 1.157 1.592 1.446.61.29 1.269.435 1.978.435l5.691-18.811c1.027-3.536 2.282-6.398 3.762-8.585 1.479-2.186 3.07-3.891 4.775-5.113 1.703-1.221 3.505-2.041 5.402-2.46 1.898-.417 3.812-.627 5.742-.627z"/></g></svg>